<svg width="32" height="32" viewBox="0 0 32 32" fill="none" xmlns="http://www.w3.org/2000/svg">
<path d="M16.0586 29.4816C16.0586 30.2347 15.4484 30.8517 14.7007 30.7826C13.2221 30.6461 11.7698 30.287 10.3933 29.7151C8.59717 28.9691 6.96518 27.8757 5.5905 26.4971C4.21582 25.1187 3.12537 23.4822 2.3814 21.681C1.63744 19.8799 1.25452 17.9495 1.25452 16C1.25452 14.0506 1.63744 12.1201 2.3814 10.319C3.12537 8.51794 4.21582 6.88142 5.5905 5.50292C6.96518 4.12442 8.59717 3.03093 10.3933 2.28489C11.7698 1.71312 13.2221 1.35401 14.7007 1.21745C15.4484 1.14838 16.0586 1.76533 16.0586 2.51837V8.89817C12.1471 8.8982 8.97633 12.0778 8.97633 16C8.97633 19.9223 12.1471 23.1019 16.0584 23.1021V8.8982C19.9698 8.8982 23.1406 12.0778 23.1406 16C23.1406 19.9223 19.9698 23.1019 16.0584 23.1021L16.0586 29.4816Z" fill="#38318B"/>
<path d="M16.0427 23.0982L16.0424 8.90186C19.9627 8.90186 23.1407 12.0798 23.1407 16C23.1407 19.9202 19.9628 23.0982 16.0427 23.0982Z" fill="#DF6552"/>
</svg>
